<?xml version="1.0" encoding="UTF-8" standalone="no"?>
<!DOCTYPE svg PUBLIC "-//W3C//DTD SVG 1.1//EN" "http://www.w3.org/Graphics/SVG/1.1/DTD/svg11.dtd">
<svg version="1.1" xmlns="http://www.w3.org/2000/svg" xmlns:xlink="http://www.w3.org/1999/xlink" preserveAspectRatio="xMidYMid meet" viewBox="0 0 120 120" width="120" height="120"><defs><path d="M120 26.69L120 93.31L0 93.31L0 26.69L120 26.69Z" id="b3XVvO6AM"></path><path d="M17.64 49.9C13.49 49.9 10.12 46.54 10.12 42.4C10.12 38.27 13.49 34.91 17.64 34.91C21.78 34.91 25.15 38.27 25.15 42.4C25.15 46.54 21.78 49.9 17.64 49.9Z" id="i76NKMXGd"></path><path d="M25.15 52.48L25.15 58.06L10.12 58.06L10.12 52.48L25.15 52.48Z" id="d2OmIhirVZ"></path><path d="M46.27 49.9C42.11 49.9 38.75 46.54 38.75 42.4C38.75 38.27 42.11 34.91 46.27 34.91C50.42 34.91 53.78 38.27 53.78 42.4C53.78 46.54 50.42 49.9 46.27 49.9Z" id="b1CWuAI5Ts"></path><path d="M75.72 49.9C71.57 49.9 68.2 46.54 68.2 42.4C68.2 38.27 71.57 34.91 75.72 34.91C79.86 34.91 83.23 38.27 83.23 42.4C83.23 46.54 79.86 49.9 75.72 49.9Z" id="b5Bbk7MrUw"></path><path d="M102.3 49.9C98.14 49.9 94.78 46.54 94.78 42.4C94.78 38.27 98.14 34.91 102.3 34.91C106.45 34.91 109.82 38.27 109.82 42.4C109.82 46.54 106.45 49.9 102.3 49.9Z" id="b1UAWMVB6B"></path><path d="M17.64 79.79C13.49 79.79 10.12 76.44 10.12 72.3C10.12 68.17 13.49 64.8 17.64 64.8C21.78 64.8 25.15 68.17 25.15 72.3C25.15 76.44 21.78 79.79 17.64 79.79Z" id="b2M0fdT8IO"></path><path d="M25.15 81.53L25.15 87.11L10.12 87.11L10.12 81.53L25.15 81.53Z" id="fQrzmAwCj"></path><path d="M46.27 79.79C42.11 79.79 38.75 76.44 38.75 72.3C38.75 68.17 42.11 64.8 46.27 64.8C50.42 64.8 53.78 68.17 53.78 72.3C53.78 76.44 50.42 79.79 46.27 79.79Z" id="bTyQaCbhN"></path><path d="M75.72 79.79C71.57 79.79 68.2 76.44 68.2 72.3C68.2 68.17 71.57 64.8 75.72 64.8C79.86 64.8 83.23 68.17 83.23 72.3C83.23 76.44 79.86 79.79 75.72 79.79Z" id="a6OoxOKa1a"></path><path d="M102.3 79.79C98.14 79.79 94.78 76.44 94.78 72.3C94.78 68.17 98.14 64.8 102.3 64.8C106.45 64.8 109.82 68.17 109.82 72.3C109.82 76.44 106.45 79.79 102.3 79.79Z" id="a9r9Ht0U6"></path><path d="M53.78 81.53L53.78 87.11L38.75 87.11L38.75 81.53L53.78 81.53Z" id="bprbDcAyL"></path><path d="M83.23 81.53L83.23 87.11L68.2 87.11L68.2 81.53L83.23 81.53Z" id="ertERs1u"></path><path d="M109.82 81.53L109.82 87.11L94.78 87.11L94.78 81.53L109.82 81.53Z" id="e6Lf1Jz5HC"></path><path d="M53.78 52.48L53.78 58.06L38.75 58.06L38.75 52.48L53.78 52.48Z" id="bg9nJ2g43"></path><path d="M83.23 52.48L83.23 58.06L68.2 58.06L68.2 52.48L83.23 52.48Z" id="c1bb4IivwO"></path><path d="M109.82 52.48L109.82 58.06L94.78 58.06L94.78 52.48L109.82 52.48Z" id="aUpkVeWuD"></path></defs><g><g><g><use xlink:href="#b3XVvO6AM" opacity="1" fill="#cfcfcf" fill-opacity="1"></use><g><use xlink:href="#b3XVvO6AM" opacity="1" fill-opacity="0" stroke="#000000" stroke-width="1" stroke-opacity="0"></use></g></g><g><use xlink:href="#i76NKMXGd" opacity="1" fill="#969696" fill-opacity="1"></use><g><use xlink:href="#i76NKMXGd" opacity="1" fill-opacity="0" stroke="#000000" stroke-width="1" stroke-opacity="0"></use></g></g><g><use xlink:href="#d2OmIhirVZ" opacity="1" fill="#969696" fill-opacity="1"></use><g><use xlink:href="#d2OmIhirVZ" opacity="1" fill-opacity="0" stroke="#000000" stroke-width="1" stroke-opacity="0"></use></g></g><g><use xlink:href="#b1CWuAI5Ts" opacity="1" fill="#969696" fill-opacity="1"></use><g><use xlink:href="#b1CWuAI5Ts" opacity="1" fill-opacity="0" stroke="#000000" stroke-width="1" stroke-opacity="0"></use></g></g><g><use xlink:href="#b5Bbk7MrUw" opacity="1" fill="#969696" fill-opacity="1"></use><g><use xlink:href="#b5Bbk7MrUw" opacity="1" fill-opacity="0" stroke="#000000" stroke-width="1" stroke-opacity="0"></use></g></g><g><use xlink:href="#b1UAWMVB6B" opacity="1" fill="#969696" fill-opacity="1"></use><g><use xlink:href="#b1UAWMVB6B" opacity="1" fill-opacity="0" stroke="#000000" stroke-width="1" stroke-opacity="0"></use></g></g><g><use xlink:href="#b2M0fdT8IO" opacity="1" fill="#969696" fill-opacity="1"></use><g><use xlink:href="#b2M0fdT8IO" opacity="1" fill-opacity="0" stroke="#000000" stroke-width="1" stroke-opacity="0"></use></g></g><g><use xlink:href="#fQrzmAwCj" opacity="1" fill="#969696" fill-opacity="1"></use><g><use xlink:href="#fQrzmAwCj" opacity="1" fill-opacity="0" stroke="#000000" stroke-width="1" stroke-opacity="0"></use></g></g><g><use xlink:href="#bTyQaCbhN" opacity="1" fill="#969696" fill-opacity="1"></use><g><use xlink:href="#bTyQaCbhN" opacity="1" fill-opacity="0" stroke="#000000" stroke-width="1" stroke-opacity="0"></use></g></g><g><use xlink:href="#a6OoxOKa1a" opacity="1" fill="#969696" fill-opacity="1"></use><g><use xlink:href="#a6OoxOKa1a" opacity="1" fill-opacity="0" stroke="#000000" stroke-width="1" stroke-opacity="0"></use></g></g><g><use xlink:href="#a9r9Ht0U6" opacity="1" fill="#969696" fill-opacity="1"></use><g><use xlink:href="#a9r9Ht0U6" opacity="1" fill-opacity="0" stroke="#000000" stroke-width="1" stroke-opacity="0"></use></g></g><g><use xlink:href="#bprbDcAyL" opacity="1" fill="#969696" fill-opacity="1"></use><g><use xlink:href="#bprbDcAyL" opacity="1" fill-opacity="0" stroke="#000000" stroke-width="1" stroke-opacity="0"></use></g></g><g><use xlink:href="#ertERs1u" opacity="1" fill="#969696" fill-opacity="1"></use><g><use xlink:href="#ertERs1u" opacity="1" fill-opacity="0" stroke="#000000" stroke-width="1" stroke-opacity="0"></use></g></g><g><use xlink:href="#e6Lf1Jz5HC" opacity="1" fill="#969696" fill-opacity="1"></use><g><use xlink:href="#e6Lf1Jz5HC" opacity="1" fill-opacity="0" stroke="#000000" stroke-width="1" stroke-opacity="0"></use></g></g><g><use xlink:href="#bg9nJ2g43" opacity="1" fill="#969696" fill-opacity="1"></use><g><use xlink:href="#bg9nJ2g43" opacity="1" fill-opacity="0" stroke="#000000" stroke-width="1" stroke-opacity="0"></use></g></g><g><use xlink:href="#c1bb4IivwO" opacity="1" fill="#969696" fill-opacity="1"></use><g><use xlink:href="#c1bb4IivwO" opacity="1" fill-opacity="0" stroke="#000000" stroke-width="1" stroke-opacity="0"></use></g></g><g><use xlink:href="#aUpkVeWuD" opacity="1" fill="#969696" fill-opacity="1"></use><g><use xlink:href="#aUpkVeWuD" opacity="1" fill-opacity="0" stroke="#000000" stroke-width="1" stroke-opacity="0"></use></g></g></g></g></svg>