<?xml version="1.0" encoding="UTF-8" standalone="no"?>
<!DOCTYPE svg PUBLIC "-//W3C//DTD SVG 1.1//EN" "http://www.w3.org/Graphics/SVG/1.1/DTD/svg11.dtd">
<svg version="1.1" xmlns="http://www.w3.org/2000/svg" xmlns:xlink="http://www.w3.org/1999/xlink" preserveAspectRatio="xMidYMid meet" viewBox="0 0 120 120" width="120" height="120"><defs><path d="M120 33.81L120 86.05L0 86.05L0 33.81L120 33.81Z" id="a6XPdmB3p"></path><path d="M114.73 53.52L114.73 83.33L5.28 83.33L5.28 53.52L114.73 53.52Z" id="b1cwyT27Jm"></path><path d="M35.68 46C35.68 47.3 35.68 44.7 35.68 46C35.68 49.57 32.66 52.47 28.93 52.47C24.19 52.47 16.76 52.47 12.03 52.47C8.3 52.47 5.28 49.57 5.28 46C5.28 44.7 5.28 47.3 5.28 46C5.28 42.41 8.3 39.51 12.03 39.51C16.76 39.51 24.19 39.51 28.93 39.51C32.66 39.51 35.68 42.41 35.68 46Z" id="b3IrHrGVLV"></path><path d="M35.68 47.94L35.68 54.42L5.28 54.42L5.28 47.94L35.68 47.94Z" id="aPXkOmVAd"></path><path d="M67.02 46C67.02 47.3 67.02 44.7 67.02 46C67.02 49.57 64 52.47 60.27 52.47C55.53 52.47 48.11 52.47 43.37 52.47C39.64 52.47 36.62 49.57 36.62 46C36.62 44.7 36.62 47.3 36.62 46C36.62 42.41 39.64 39.51 43.37 39.51C48.11 39.51 55.53 39.51 60.27 39.51C64 39.51 67.02 42.41 67.02 46Z" id="b1blqyak3u"></path><path d="M67.02 47.94L67.02 54.42L36.62 54.42L36.62 47.94L67.02 47.94Z" id="cn0Iqy14U"></path></defs><g><g><g><use xlink:href="#a6XPdmB3p" opacity="1" fill="#cfcfcf" fill-opacity="1"></use><g><use xlink:href="#a6XPdmB3p" opacity="1" fill-opacity="0" stroke="#000000" stroke-width="1" stroke-opacity="0"></use></g></g><g><use xlink:href="#b1cwyT27Jm" opacity="1" fill="#a7a3a3" fill-opacity="1"></use><g><use xlink:href="#b1cwyT27Jm" opacity="1" fill-opacity="0" stroke="#000000" stroke-width="1" stroke-opacity="0"></use></g></g><g><use xlink:href="#b3IrHrGVLV" opacity="1" fill="#989898" fill-opacity="1"></use><g><use xlink:href="#b3IrHrGVLV" opacity="1" fill-opacity="0" stroke="#000000" stroke-width="1" stroke-opacity="0"></use></g></g><g><use xlink:href="#aPXkOmVAd" opacity="1" fill="#989898" fill-opacity="1"></use><g><use xlink:href="#aPXkOmVAd" opacity="1" fill-opacity="0" stroke="#000000" stroke-width="1" stroke-opacity="0"></use></g></g><g><use xlink:href="#b1blqyak3u" opacity="1" fill="#989898" fill-opacity="1"></use><g><use xlink:href="#b1blqyak3u" opacity="1" fill-opacity="0" stroke="#000000" stroke-width="1" stroke-opacity="0"></use></g></g><g><use xlink:href="#cn0Iqy14U" opacity="1" fill="#989898" fill-opacity="1"></use><g><use xlink:href="#cn0Iqy14U" opacity="1" fill-opacity="0" stroke="#000000" stroke-width="1" stroke-opacity="0"></use></g></g></g></g></svg>